<svg xmlns="http://www.w3.org/2000/svg" xmlns:xlink="http://www.w3.org/1999/xlink" viewBox="0 0 2067.65 1285.76"><defs><style>.cls-1{fill:none;}.cls-12,.cls-2,.cls-7,.cls-9{fill:#062756;}.cls-10,.cls-3{fill:#0a6293;}.cls-4{clip-path:url(#clip-path);}.cls-5{clip-path:url(#clip-path-2);}.cls-6{clip-path:url(#clip-path-3);}.cls-10,.cls-12,.cls-7,.cls-9{stroke:#062756;stroke-miterlimit:10;}.cls-7{stroke-width:24px;}.cls-8{clip-path:url(#clip-path-4);}.cls-9{stroke-width:12px;}.cls-10{stroke-width:2px;}.cls-11{clip-path:url(#clip-path-5);}.cls-12{stroke-width:8px;}.cls-13{clip-path:url(#clip-path-6);}.cls-14{fill:#8ffffc;opacity:0.6;}.cls-15{fill:#fff;opacity:0.81;}</style><clipPath id="clip-path" transform="translate(-41.74 -45.14)"><polygon class="cls-1" points="41.73 45.14 41.73 45.14 191.74 45.14 191.74 1195.14 41.73 1195.14 41.73 45.14"/></clipPath><clipPath id="clip-path-2" transform="translate(-41.74 -45.14)"><polygon class="cls-1" points="1224.95 45.14 1224.95 45.14 1074.95 45.14 1074.95 1195.14 1224.95 1195.14 1224.95 45.14"/></clipPath><clipPath id="clip-path-3" transform="translate(-41.74 -45.14)"><rect class="cls-1" x="1372.99" y="504.53" width="72.12" height="392.92"/></clipPath><clipPath id="clip-path-4" transform="translate(-41.74 -45.14)"><rect class="cls-1" x="1704.45" y="504.53" width="72.12" height="392.92"/></clipPath><clipPath id="clip-path-5" transform="translate(-41.74 -45.14)"><rect class="cls-1" x="1950.3" y="623.57" width="27.15" height="154.84"/></clipPath><clipPath id="clip-path-6" transform="translate(-41.74 -45.14)"><rect class="cls-1" x="2082.23" y="623.57" width="27.15" height="154.84"/></clipPath></defs><g id="Calque_1" data-name="Calque 1"><path class="cls-2" d="M787.89,1016c.64-3.92,2-13.25,3.47-16.83,2.21-5.38-5.61-18.65-7.32-24.68-2.57-9.09-19.37-26-37.14-45.31-10.77-11.72-23.87-22.15-35-32-15.6-13.75-31.59-27-47.35-40.6-10.86-9.34-21.83-17.26-37.55-17-14.88.25-29.81-2-44.71-3.09-7.27-.56-9.88,2.83-6.24,9.29,5.13,9.12,11.16,17.72,16.63,26.65,15.46,25.24,33.5,48.34,55.14,68.66,7.88,7.41,16.74,13,26.89,15.64,12,3.13,23,7.77,34.87,11.29,13.67,4.06,21.32,3.37,29.22,12.28,6.54,7.36,6.6,10.17,6.14,17.37-.19,3-3.37.16-3.93-1-1.06-2.11-1-5.83-6.72-12.16-3.7-4.1-19.72-6.61-24-6.81-2.38-.11-6.67-.19-7.69,1.39-1.2,1.87-3.9,3.86-1.21,10.92,2.47,6.47-14.09,3.83-20.43-1-12.39-9.43-22-11.47-27.68-1.72C651.05,991,638.11,1019,639,1014.79c2.33-10.79,4.65-25.24-2.56-43.67-4.07-10.41-6.79-10.86-12.68-20.83-10.06-17-19.76-30.39-31.24-49.36-11.88-19.62-23.69-34.34-36.23-55.25-9.51-15.85-18.52-26.9-45.73-47.3-35.47-26.61-63.81-43-89.28-54-22.42-9.72-34.15-12.73-53.27-11-24.19,2.16-46.52,19.63-79.26,35.9-10.86,5.4-53.59,26.85-65.4,30.48-22.8,7-44.2-1.53-18.86-16,49.81-28.32,40.6-22,71.72-43.07,50.73-34.42,63.66-63.61,103.48-114.8,32.38-41.63,54.69-77.57,99.17-117.07,31.57-28,80.83-62.42,102.85-79.81,16-12.63,35.94-37.17,60.71-66.9,22.34-26.82,38.93-49.35,64.67-71.32,17.81-15.21,27.84-21.5,52.59-30.26s46.87-8.78,71.13-5.72c17.85,2.26,36.85,4.85,52.44,10.1s14.23,5.45,23.84,9.94c6.33,3,9.44,5.76,12,8.83,1.82,2.21,12.89,10.78,22.66,11.64,14.23,1.24,28.55,1.53,42.78,2.92,2.33.23,7.22.67,9.4,5.87a1.33,1.33,0,0,1-.24,1.27,19.36,19.36,0,0,1-5.86,4.75c-12.7,6.16-25.33,12.55-38.39,17.86-16.95,6.9-29.88,20.49-34.21,40.73-4.57,21.34-6.19,31-4,51.57,2.35,22.17,11.08,36.2,14.76,62.72,5.34,38.43,6.25,63.7-1.78,104.38-8.5,43.06-17,64.68-46.32,109-14.7,22.2-36.65,43.25-80.23,71.12-23.27,14.88-90.55,51.12-100.46,55.3-7.65,3.22-15.33,6.4-22.87,9.88-3.72,1.73-4.14,4.91-1.27,7.69,19.3,18.76,38.59,37.54,58.14,56,18.11,17.14,36.24,34.3,55,50.75,8,7,17.65,12.2,26.39,18.43,7,5,14.17,9.79,20.45,15.57,10.15,9.31,15.25,12,27,18.89C874.53,1008.48,787.8,1016.46,787.89,1016Z" transform="translate(-41.74 -45.14)"/><path class="cls-2" d="M1624.36,828a35.52,35.52,0,0,1,1.11-5.39c.71-1.73-1.8-6-2.35-7.92-.82-2.92-6.21-8.34-11.91-14.54-3.46-3.76-7.66-7.1-11.24-10.26-5-4.42-10.13-8.68-15.19-13-3.49-3-7-5.54-12-5.45-4.77.08-9.56-.63-14.34-1-2.33-.17-3.17.91-2,3,1.64,2.92,3.58,5.68,5.33,8.55a105.72,105.72,0,0,0,17.69,22,20,20,0,0,0,8.63,5c3.83,1,7.38,2.49,11.18,3.62,4.39,1.3,6.84,1.08,9.38,3.94,2.1,2.36,2.12,3.26,2,5.57-.06.95-1.08,0-1.26-.31a9.31,9.31,0,0,0-2.16-3.9c-1.19-1.32-6.32-2.12-7.7-2.19-.76,0-2.14-.06-2.46.45s-1.26,1.24-.39,3.5c.79,2.08-4.52,1.23-6.56-.31-4-3-7-3.68-8.88-.55-.7,1.2-4.85,10.18-4.56,8.82a22.6,22.6,0,0,0-.82-14c-1.3-3.34-2.17-3.48-4.06-6.68-3.23-5.46-6.34-9.75-10-15.84-3.81-6.29-7.6-11-11.62-17.72-3-5.09-5.94-8.63-14.67-15.18-11.38-8.53-20.47-13.79-28.64-17.33-7.19-3.12-11-4.09-17.09-3.54-7.76.69-14.92,6.3-25.43,11.52-3.48,1.73-17.19,8.61-21,9.78-7.31,2.24-14.18-.5-6-5.12,16-9.09,13-7.05,23-13.82,16.27-11,20.42-20.4,33.2-36.83,10.38-13.35,17.54-24.88,31.81-37.55,10.13-9,25.93-20,33-25.61,5.12-4,11.53-11.92,19.47-21.46,7.17-8.6,12.49-15.83,20.75-22.88,5.71-4.88,8.93-6.9,16.87-9.71s15-2.81,22.82-1.83c5.72.72,11.82,1.55,16.82,3.24a44.22,44.22,0,0,1,7.65,3.19,9.93,9.93,0,0,1,3.83,2.83c.59.71,4.14,3.46,7.27,3.73,4.57.4,9.16.5,13.73.94a3.26,3.26,0,0,1,3,1.89.42.42,0,0,1-.08.4,6.07,6.07,0,0,1-1.88,1.53c-4.07,2-8.12,4-12.31,5.73a17.66,17.66,0,0,0-11,13.06c-1.46,6.85-2,10-1.28,16.55.76,7.11,3.55,11.61,4.74,20.12,1.71,12.32,2,20.43-.58,33.48-2.72,13.82-5.44,20.75-14.86,35-4.71,7.12-11.75,13.88-25.73,22.82-7.47,4.77-29,16.4-32.23,17.73-2.46,1-4.92,2.06-7.34,3.18a1.37,1.37,0,0,0-.4,2.46c6.19,6,12.38,12,18.65,18,5.81,5.5,11.62,11,17.63,16.28,2.57,2.26,5.66,3.91,8.47,5.91a67.11,67.11,0,0,1,6.56,5c3.26,3,4.89,3.86,8.67,6.06C1652.15,825.57,1624.33,828.14,1624.36,828Z" transform="translate(-41.74 -45.14)"/><path class="cls-3" d="M2050.78,750.45a5,5,0,0,1,.17-.68c.35-.87-.12-2-.58-3a8.21,8.21,0,0,1-.32-.8,10.12,10.12,0,0,0-2.35-3.35l1,.89a19,19,0,0,0,2.25,1.61c.4.26.81.53,1.2.8l.44.32a20.49,20.49,0,0,1,2.07,1.59,14,14,0,0,0,2.28,1.75C2055.24,749.93,2052.42,750.29,2050.78,750.45Zm-13.39-2.81a2.6,2.6,0,0,1-.86-.34,4.9,4.9,0,0,0-2.87-1.24,2.33,2.33,0,0,0-2,1.07,9.89,9.89,0,0,0-.5-1.68,6.58,6.58,0,0,0-1-1.81,9.48,9.48,0,0,1-.67-1c-.68-1.15-1.34-2.15-2-3.22s-1.27-1.94-2-3.09l-.09-.14a41.74,41.74,0,0,0,5.6,6.51,9,9,0,0,0,3.87,2.23c.83.22,1.61.49,2.44.78l.8.28a1.26,1.26,0,0,0-.27.29A2,2,0,0,0,2037.39,747.64Zm-14.14-14.72c-.77-1.13-1.57-2.29-2.38-3.64-1.3-2.16-2.54-3.66-6.1-6.33a57,57,0,0,0-11.6-7,14.06,14.06,0,0,0-6-1.55c-.41,0-.83,0-1.29.06-2.37.21-4.55,1.43-7.06,2.85-1.07.6-2.18,1.22-3.42,1.83l-.33.17c-1.62.8-6.54,3.26-7.87,3.66a5.89,5.89,0,0,1-1.72.28,4.22,4.22,0,0,1-.57,0,6.29,6.29,0,0,1,.67-.45l3.52-2a53.71,53.71,0,0,0,5.71-3.56c5-3.42,7.23-6.43,10.24-10.58.93-1.27,2-2.71,3.2-4.29,1-1.23,1.84-2.42,2.71-3.58a67.24,67.24,0,0,1,9.83-11.23c2.69-2.4,6.44-5.18,9.45-7.41,1.46-1.09,2.72-2,3.64-2.75,2-1.55,4.26-4.32,7.18-7.82l.72-.87c.54-.65,1.06-1.28,1.56-1.9a51.23,51.23,0,0,1,6.58-7.08,16.35,16.35,0,0,1,6.39-3.68,15.73,15.73,0,0,1,5.39-.91,24.72,24.72,0,0,1,3.24.23,35.43,35.43,0,0,1,6.5,1.24,15.21,15.21,0,0,1,2.19.86l.75.37a2.86,2.86,0,0,1,1.17.85,6.44,6.44,0,0,0,3.59,1.85c.85.08,1.7.12,2.56.17s1.54.09,2.3.15l-.13.07c-1.32.64-2.68,1.31-4,1.86a8.05,8.05,0,0,0-5,5.92,18.18,18.18,0,0,0-.53,6.9,20,20,0,0,0,.92,4,23.79,23.79,0,0,1,1,4.06,34.17,34.17,0,0,1-.22,13c-1,5.18-2,7.86-5.77,13.55-1.95,3-4.93,5.58-9.94,8.79-3,1.89-11.48,6.48-12.68,7l-.36.16c-.87.36-1.74.73-2.59,1.12a1.58,1.58,0,0,0-1,1.17,1.62,1.62,0,0,0,.52,1.44l3.13,3-.67-.57-2.2-1.88a8,8,0,0,0-5.35-2.41h-.4c-1.17,0-2.34-.11-3.57-.23-.59-.06-1.18-.12-1.76-.16h-.27a1.71,1.71,0,0,0-1.61.79,1.8,1.8,0,0,0,.13,1.89c.42.74.88,1.46,1.33,2.15l.76,1.19Z" transform="translate(-41.74 -45.14)"/><path class="cls-2" d="M2051.7,656.11h0a24.48,24.48,0,0,1,3.11.22,33.73,33.73,0,0,1,6.31,1.2,11.62,11.62,0,0,1,2.06.81c.2.1.44.22.78.37a2,2,0,0,1,.82.59,7.51,7.51,0,0,0,4.27,2.21l1,.08-.6.25a9,9,0,0,0-5.57,6.63,19.1,19.1,0,0,0-.54,7.22,21.64,21.64,0,0,0,.95,4.16,23.16,23.16,0,0,1,.94,3.91,33.4,33.4,0,0,1-.21,12.66c-1,5.12-1.92,7.61-5.62,13.2-1.87,2.83-4.76,5.37-9.65,8.5-3,1.91-11.52,6.48-12.53,6.9l-.39.17c-.85.35-1.73.72-2.59,1.12a2.63,2.63,0,0,0-1.47,1.65,7.41,7.41,0,0,0-3.64-1h-.4c-1.13,0-2.27-.11-3.47-.23-.6-.06-1.19-.12-1.79-.16h-.34a2.77,2.77,0,0,0-2.2.91,22.66,22.66,0,0,0-5.56-5.37,58.65,58.65,0,0,0-11.8-7.13,15.08,15.08,0,0,0-6.4-1.63c-.43,0-.88,0-1.38.06-2.58.23-4.85,1.5-7.46,3-.93.52-1.88,1.06-2.91,1.58,5.16-3.51,7.49-6.72,10.44-10.78,1-1.33,2-2.7,3.18-4.27,1-1.23,1.86-2.43,2.72-3.59a66.91,66.91,0,0,1,9.69-11.09c2.67-2.36,6.39-5.13,9.38-7.35,1.47-1.09,2.74-2,3.67-2.76,2-1.62,4.37-4.42,7.32-8l.72-.87c.55-.65,1.07-1.28,1.57-1.9a51.31,51.31,0,0,1,6.45-7,15.54,15.54,0,0,1,6.09-3.5,14.68,14.68,0,0,1,5-.85M2032,744.72c.26.16.52.32.79.46a2.62,2.62,0,0,0-.53.2l-.11-.3-.15-.36m19.43,1.89.18.12.44.32a19,19,0,0,1,2,1.51c.16.15.32.3.48.43-.81.12-1.65.22-2.4.31a6,6,0,0,0-.68-2.69m.31-92.5a16.83,16.83,0,0,0-5.72,1,17.51,17.51,0,0,0-6.71,3.87c-3.29,2.8-5.41,5.68-8.26,9.1-3.16,3.8-5.71,6.93-7.75,8.55-2.82,2.22-9.11,6.61-13.14,10.19-5.68,5-8.52,9.63-12.66,15-5.08,6.53-6.73,10.26-13.21,14.65-4,2.7-2.8,1.89-9.16,5.5-2.45,1.4-1.48,2.36.39,2.36a6.94,6.94,0,0,0,2-.32c1.51-.46,7-3.2,8.35-3.89,4.18-2.08,7-4.31,10.12-4.58q.63-.06,1.2-.06a13.22,13.22,0,0,1,5.6,1.46,56.79,56.79,0,0,1,11.4,6.9c3.48,2.61,4.63,4,5.84,6,1.6,2.67,3.11,4.55,4.63,7.06s2.7,4.13,4,6.3a14.79,14.79,0,0,1,1.62,2.66,9,9,0,0,1,.32,5.58s0,.05,0,.05,1.56-3.12,1.82-3.57a1.41,1.41,0,0,1,1.27-.81,4.11,4.11,0,0,1,2.26,1,3.8,3.8,0,0,0,2,.62c.45,0,.75-.14.62-.49a1.17,1.17,0,0,1,.15-1.39c.1-.16.44-.19.73-.19h.26c.54,0,2.59.34,3.06.87a3.76,3.76,0,0,1,.86,1.55.62.62,0,0,0,.38.29c.06,0,.11,0,.12-.17a2.34,2.34,0,0,0-.78-2.21c-1-1.14-2-1.05-3.73-1.57-1.52-.45-2.93-1-4.46-1.44a8,8,0,0,1-3.43-2,41.91,41.91,0,0,1-7-8.77c-.7-1.14-1.47-2.24-2.13-3.4-.43-.77-.17-1.19.61-1.19h.19c1.8.14,3.61.4,5.41.4h.4a7,7,0,0,1,4.7,2.17c2,1.73,4.05,3.43,6,5.18a58.17,58.17,0,0,1,4.48,4.09c2.26,2.47,4.41,4.62,4.74,5.79.22.77,1.21,2.46.93,3.15a14.88,14.88,0,0,0-.44,2.15h0c.61,0,11-1,9.18-2a16.08,16.08,0,0,1-3.45-2.41,25.31,25.31,0,0,0-2.61-2c-1.12-.8-2.35-1.46-3.37-2.35-2.39-2.11-4.71-4.3-7-6.48-2.5-2.37-5-4.76-7.43-7.16a.55.55,0,0,1,.17-1c1-.45,1.94-.85,2.92-1.26,1.26-.54,9.85-5.16,12.82-7.06,5.57-3.56,8.37-6.25,10.25-9.09,3.74-5.65,4.83-8.41,5.91-13.91a35.06,35.06,0,0,0,.23-13.33c-.47-3.38-1.58-5.18-1.88-8a17,17,0,0,1,.51-6.58,7,7,0,0,1,4.36-5.2c1.67-.68,3.28-1.5,4.91-2.28a2.51,2.51,0,0,0,.74-.61.16.16,0,0,0,0-.16,1.29,1.29,0,0,0-1.2-.75c-1.82-.18-3.65-.22-5.47-.37a5.66,5.66,0,0,1-2.89-1.49,4,4,0,0,0-1.53-1.13,17.22,17.22,0,0,0-3-1.27,36.32,36.32,0,0,0-6.7-1.29,27.5,27.5,0,0,0-3.36-.23Z" transform="translate(-41.74 -45.14)"/><g id="Calque_4" data-name="Calque 4"><g id="_Répétition_miroir_" data-name="&lt;Répétition miroir&gt;"><g class="cls-4"><polygon class="cls-2" points="150 0 0 0 0 1150 150 1150 150 1100 50 1100 50 50 150 50 150 0"/></g></g><g id="_Répétition_miroir_2" data-name="&lt;Répétition miroir&gt;"><g class="cls-5"><polygon class="cls-2" points="1033.21 0 1183.21 0 1183.21 1150 1033.21 1150 1033.21 1100 1133.21 1100 1133.21 50 1033.21 50 1033.21 0"/></g></g><g id="_Répétition_miroir_3" data-name="&lt;Répétition miroir&gt;"><g class="cls-6"><polygon class="cls-7" points="1391.38 471.4 1343.26 471.4 1343.26 840.32 1391.38 840.32 1391.38 824.28 1359.3 824.28 1359.3 487.44 1391.38 487.44 1391.38 471.4"/></g></g><g id="_Répétition_miroir_4" data-name="&lt;Répétition miroir&gt;"><g class="cls-8"><polygon class="cls-7" points="1674.71 471.4 1722.83 471.4 1722.83 840.32 1674.71 840.32 1674.71 824.28 1706.79 824.28 1706.79 487.44 1674.71 487.44 1674.71 471.4"/></g></g><g id="Calque_3" data-name="Calque 3"><polygon class="cls-2" points="1146.85 881.34 914.81 929.26 412.45 923.16 37.65 782.39 37.65 917.04 376.3 1002.04 914.81 981.07 1157.45 923.77 1146.85 881.34"/><polygon class="cls-9" points="1711.17 754.13 1636.73 769.5 1475.57 767.55 1355.33 722.39 1355.33 765.59 1463.97 792.85 1636.73 786.12 1714.57 767.74 1711.17 754.13"/></g></g><polygon class="cls-10" points="2059.01 694.97 2029.38 701.09 1965.23 700.31 1917.38 682.34 1917.38 699.53 1960.62 710.38 2029.38 707.71 2060.36 700.39 2059.01 694.97"/><g id="_Répétition_miroir_5" data-name="&lt;Répétition miroir&gt;"><g class="cls-11"><polygon class="cls-12" points="1931.72 582.44 1912.57 582.44 1912.57 729.28 1931.72 729.28 1931.72 722.89 1918.95 722.89 1918.95 588.82 1931.72 588.82 1931.72 582.44"/></g></g><g id="_Répétition_miroir_6" data-name="&lt;Répétition miroir&gt;"><g class="cls-13"><polygon class="cls-12" points="2044.5 582.44 2063.65 582.44 2063.65 729.28 2044.5 729.28 2044.5 722.89 2057.27 722.89 2057.27 588.82 2044.5 588.82 2044.5 582.44"/></g></g></g><g id="Calque_10" data-name="Calque 10"><path class="cls-2" d="M392.55,1145.15a167.12,167.12,0,0,1,29.29,2.37,60.83,60.83,0,0,1,22.67,8.5A40.84,40.84,0,0,1,459,1172.65q5.14,10.5,5.14,26.75,0,16.5-5.14,27.5a43.71,43.71,0,0,1-14.54,17.62,59.83,59.83,0,0,1-22.67,9.38,145.1,145.1,0,0,1-29.32,2.75H353.92v48.45q0,11.55,27.75,11.55v14.25H293.42v-14.25q22.24,0,22.25-11.52V1171.42q0-11.52-22.25-11.52v-14.75Zm-38.63,21v70h34.25q20.25,0,29-9.28t8.75-27.35q0-15.81-8.75-24.59t-29-8.78Z" transform="translate(-41.74 -45.14)"/><path class="cls-2" d="M567.66,1159.9q-22.24,0-22.25,11.52v133.71q0,11.52,22.25,11.52v14.25h-83v-14.25q22.5,0,22.5-11.52V1171.42q0-11.52-22.5-11.52v-14.75h83Z" transform="translate(-41.74 -45.14)"/><path class="cls-2" d="M769.66,1308.9q2.49,7.5,20.5,7.5v14.5h-91.5v-14.5h22q7.25,0,7.25-4.75a9.7,9.7,0,0,0-.75-2.75l-10-27H640.41l-9.25,25a9.25,9.25,0,0,0-.5,3q0,6.49,11,6.5h15.5v14.5H588.91v-14.75q10.5,0,15.5-1.75t6.25-5.25l62.5-164h36.25Zm-122.75-45.5h64l-31.75-88Z" transform="translate(-41.74 -45.14)"/><path class="cls-2" d="M973.91,1201.4l-15.5,1q-4-37.76-31.5-37.75H869.16v66.25h30.5q15.24,0,17.5-32h15.25l-3.75,83H913.91q-2.76-32.75-16-32.75H869.16v55.95q0,11.55,29.5,11.55v14.25h-90v-14.25q22.25,0,22.25-11.52V1171.42q0-11.52-22.25-11.52v-14.75H973.91Z" transform="translate(-41.74 -45.14)"/></g><g id="Calque_7" data-name="Calque 7"><ellipse class="cls-14" cx="828.82" cy="306.04" rx="18.46" ry="12.98" transform="matrix(1, -0.05, 0.05, 1, -54.71, -7.39)"/><ellipse class="cls-15" cx="1637.49" cy="600.23" rx="5.92" ry="4.16" transform="translate(-67.17 29.43) rotate(-2.59)"/></g></svg>